<svg id="Capa_1" enable-background="new 0 0 511 511" height="512" viewBox="0 0 511 511" width="512" xmlns="http://www.w3.org/2000/svg"><g id="Outline"><g><path d="m323.5 311.5h-64v-224c0-17.673 14.327-32 32-32 17.673 0 32 14.327 32 32z" fill="#ff9c62"/><path d="m303.5 57.835c-3.707-1.501-7.755-2.335-12-2.335-17.673 0-32 14.327-32 32v224h24v-224c0-13.428 8.274-24.917 20-29.665z" fill="#ff833b"/><path d="m195.5 311.5h-64v-224c0-17.673 14.327-32 32-32 17.673 0 32 14.327 32 32z" fill="#ff9c62"/><path d="m175.5 57.835c-3.707-1.501-7.755-2.335-12-2.335-17.673 0-32 14.327-32 32v224h24v-224c0-13.428 8.274-24.917 20-29.665z" fill="#ff833b"/><path d="m131.5 311.5h-64v-168c0-17.673 14.327-32 32-32 17.673 0 32 14.327 32 32z" fill="#ff9c62"/><path d="m111.5 113.835c-3.707-1.501-7.755-2.335-12-2.335-17.673 0-32 14.327-32 32v168h24v-168c0-13.428 8.274-24.917 20-29.665z" fill="#ff833b"/><path d="m259.5 311.5h-64v-272c0-17.673 14.327-32 32-32 17.673 0 32 14.327 32 32z" fill="#ff9c62"/><path d="m239.5 9.835c-3.707-1.501-7.755-2.335-12-2.335-17.673 0-32 14.327-32 32v272h24v-272c0-13.428 8.274-24.917 20-29.665z" fill="#ff833b"/><path d="m325.862 447.5-54.464-33.611 92.43-149.776c13.922-22.56 43.496-29.562 66.056-15.64l13.616 8.403z" fill="#ff9c62"/><path d="m429.884 248.474c-2.719-1.678-5.542-3.045-8.425-4.124l-115.496 187.15-32.903-20.305-1.663 2.694 54.464 33.611 117.639-190.624z" fill="#ff833b"/><path d="m67.5 255.5h256v248h-256z" fill="#7e5771"/><path d="m67.5 255.5h40v248h-40z" fill="#6e425f"/><path d="m251.5 431.5h-112c-17.673 0-32-14.327-32-32v-48c0-17.673 14.327-32 32-32h112c17.673 0 32 14.327 32 32v48c0 17.673-14.327 32-32 32z" fill="#53d4a9"/><path d="m275.5 407.5h-112c-17.673 0-32-14.327-32-32v-48c0-2.47.289-4.872.819-7.181-14.214 3.261-24.819 15.978-24.819 31.181v48c0 17.673 14.327 32 32 32h112c15.203 0 27.92-10.605 31.181-24.819-2.31.53-4.711.819-7.181.819z" fill="#21b89c"/></g><g><path d="m447.438 250.494-13.616-8.403c-12.616-7.786-27.509-10.192-41.934-6.776-14.426 3.416-26.658 12.244-34.443 24.86l-26.445 42.853v-215.528c0-21.78-17.72-39.5-39.5-39.5-9.25 0-17.761 3.205-24.5 8.551v-17.051c0-21.78-17.72-39.5-39.5-39.5s-39.5 17.72-39.5 39.5v17.051c-6.739-5.346-15.25-8.551-24.5-8.551-21.78 0-39.5 17.72-39.5 39.5v25.051c-6.739-5.346-15.25-8.551-24.5-8.551-21.78 0-39.5 17.72-39.5 39.5v176c0 4.142 3.358 7.5 7.5 7.5s7.5-3.358 7.5-7.5v-56.5h241v240.5c0 4.142 3.358 7.5 7.5 7.5s7.5-3.358 7.5-7.5v-50.534c.47-.442 118.882-192.151 118.882-192.151 2.175-3.524 1.081-8.146-2.444-10.321zm-244.438-210.994c0-13.509 10.99-24.5 24.5-24.5s24.5 10.991 24.5 24.5v208.5h-49zm-64 48c0-13.509 10.99-24.5 24.5-24.5s24.5 10.991 24.5 24.5v160.5h-49zm-39.5 31.5c13.509 0 24.5 10.991 24.5 24.5v104.5h-49v-104.5c0-13.509 10.99-24.5 24.5-24.5zm167.5 129v-160.5c0-13.509 10.99-24.5 24.5-24.5s24.5 10.991 24.5 24.5v160.5zm64 176.894v-94.252c.706-.54 39.21-62.59 39.21-62.59 11.729-19.004 36.731-24.923 55.735-13.196l7.233 4.464z"/><path d="m67.5 347.435c-4.142 0-7.5 3.358-7.5 7.5v148.565c0 4.142 3.358 7.5 7.5 7.5s7.5-3.358 7.5-7.5v-148.565c0-4.143-3.358-7.5-7.5-7.5z"/><path d="m251.5 312h-112c-21.78 0-39.5 17.72-39.5 39.5v48c0 21.78 17.72 39.5 39.5 39.5h112c21.78 0 39.5-17.72 39.5-39.5v-48c0-21.78-17.72-39.5-39.5-39.5zm24.5 87.5c0 13.509-10.991 24.5-24.5 24.5h-112c-13.509 0-24.5-10.991-24.5-24.5v-48c0-13.509 10.991-24.5 24.5-24.5h112c13.509 0 24.5 10.991 24.5 24.5z"/><path d="m146.413 392.587c-1.137-2.695-3.804-4.587-6.913-4.587-4.142 0-7.5 3.358-7.5 7.5v4c0 4.142 3.358 7.5 7.5 7.5h4c4.142 0 7.5-3.358 7.5-7.5 0-3.109-1.892-5.776-4.587-6.913z"/><path d="m139.5 385.857c4.142 0 7.5-3.358 7.5-7.5v-5.714c0-4.142-3.358-7.5-7.5-7.5s-7.5 3.358-7.5 7.5v5.714c0 4.142 3.357 7.5 7.5 7.5z"/><path d="m143.5 344h-4c-4.142 0-7.5 3.358-7.5 7.5v4c0 4.142 3.358 7.5 7.5 7.5 3.109 0 5.776-1.892 6.913-4.587 2.695-1.137 4.587-3.804 4.587-6.913 0-4.142-3.358-7.5-7.5-7.5z"/><path d="m192.033 359h6.933c4.142 0 7.5-3.358 7.5-7.5s-3.358-7.5-7.5-7.5h-6.933c-4.142 0-7.5 3.358-7.5 7.5s3.358 7.5 7.5 7.5z"/><path d="m219.766 359h6.933c4.142 0 7.5-3.358 7.5-7.5s-3.358-7.5-7.5-7.5h-6.933c-4.142 0-7.5 3.358-7.5 7.5s3.358 7.5 7.5 7.5z"/><path d="m164.299 359h6.933c4.142 0 7.5-3.358 7.5-7.5s-3.358-7.5-7.5-7.5h-6.933c-4.142 0-7.5 3.358-7.5 7.5s3.358 7.5 7.5 7.5z"/><path d="m251.5 344h-4c-4.142 0-7.5 3.358-7.5 7.5 0 3.109 1.892 5.776 4.587 6.913 1.137 2.695 3.804 4.587 6.913 4.587 4.142 0 7.5-3.358 7.5-7.5v-4c0-4.142-3.358-7.5-7.5-7.5z"/><path d="m251.5 365.143c-4.142 0-7.5 3.358-7.5 7.5v5.714c0 4.142 3.358 7.5 7.5 7.5s7.5-3.358 7.5-7.5v-5.714c0-4.142-3.358-7.5-7.5-7.5z"/><path d="m251.5 388c-3.109 0-5.776 1.892-6.913 4.587-2.695 1.137-4.587 3.804-4.587 6.913 0 4.142 3.358 7.5 7.5 7.5h4c4.142 0 7.5-3.358 7.5-7.5v-4c0-4.142-3.358-7.5-7.5-7.5z"/><path d="m198.966 392h-6.933c-4.142 0-7.5 3.358-7.5 7.5s3.358 7.5 7.5 7.5h6.933c4.142 0 7.5-3.358 7.5-7.5s-3.358-7.5-7.5-7.5z"/><path d="m171.233 392h-6.933c-4.142 0-7.5 3.358-7.5 7.5s3.358 7.5 7.5 7.5h6.933c4.142 0 7.5-3.358 7.5-7.5s-3.358-7.5-7.5-7.5z"/><path d="m226.7 392h-6.933c-4.142 0-7.5 3.358-7.5 7.5s3.358 7.5 7.5 7.5h6.933c4.142 0 7.5-3.358 7.5-7.5s-3.358-7.5-7.5-7.5z"/></g></g></svg>